<svg width="16" height="17" viewBox="0 0 16 17" fill="none" xmlns="http://www.w3.org/2000/svg">
<path d="M14.4351 7.70331C14.0579 7.32615 13.5462 7.11428 13.0128 7.11428C12.4793 7.11428 11.9677 7.32615 11.5904 7.70331L9.99501 9.2987L9.99501 2.01183C9.99501 1.47826 9.78305 0.966545 9.40576 0.589253C9.02847 0.21196 8.51675 -2.84448e-07 7.98318 -3.07771e-07C7.44961 -3.31095e-07 6.93789 0.21196 6.5606 0.589252C6.18331 0.966545 5.97134 1.47826 5.97134 2.01183L5.97134 9.2987L4.37596 7.70331C4.19037 7.51116 3.96838 7.3579 3.72293 7.25246C3.47748 7.14702 3.21348 7.09152 2.94635 7.0892C2.67922 7.08688 2.41431 7.13778 2.16706 7.23894C1.91981 7.34009 1.69519 7.48948 1.50629 7.67838C1.31739 7.86727 1.16801 8.0919 1.06685 8.33915C0.965695 8.58639 0.914791 8.85131 0.917112 9.11844C0.919433 9.38557 0.974932 9.64956 1.08037 9.89501C1.18581 10.1405 1.33908 10.3625 1.53123 10.548L7.98318 17L14.4351 10.548C14.8123 10.1708 15.0242 9.65915 15.0242 9.12568C15.0242 8.59221 14.8123 8.08059 14.4351 7.70331V7.70331Z" fill="#02B4EC"/>
</svg>
