<svg width="15" height="18" viewBox="0 0 15 18" fill="none" xmlns="http://www.w3.org/2000/svg">
<path d="M0.589037 10.1967C0.966312 10.5738 1.47794 10.7857 2.0114 10.7857C2.54487 10.7857 3.0565 10.5738 3.43377 10.1967L5.02916 8.6013L5.02916 15.8882C5.02916 16.4217 5.24112 16.9334 5.61841 17.3107C5.9957 17.688 6.50742 17.9 7.04099 17.9C7.57456 17.9 8.08628 17.688 8.46357 17.3107C8.84086 16.9334 9.05282 16.4217 9.05282 15.8882L9.05282 8.6013L10.6482 10.1967C10.8338 10.3888 11.0558 10.5421 11.3012 10.6475C11.5467 10.753 11.8107 10.8085 12.0778 10.8108C12.3449 10.8131 12.6099 10.7622 12.8571 10.6611C13.1044 10.5599 13.329 10.4105 13.5179 10.2216C13.7068 10.0327 13.8562 9.80809 13.9573 9.56085C14.0585 9.3136 14.1094 9.04868 14.1071 8.78155C14.1047 8.51442 14.0492 8.25043 13.9438 8.00498C13.8384 7.75953 13.6851 7.53753 13.4929 7.35195L7.04099 0.899993L0.589037 7.35195C0.211876 7.72922 -4.22215e-07 8.24085 -3.98896e-07 8.77431C-3.75578e-07 9.30778 0.211877 9.8194 0.589037 10.1967V10.1967Z" fill="#FF6E30"/>
</svg>
