<svg width="22" height="26" viewBox="0 0 22 26" fill="none" xmlns="http://www.w3.org/2000/svg">
<path d="M21.4107 8.125H0.589286C0.265179 8.125 0 7.85078 0 7.51562V5.6875C0 4.3418 1.0558 3.25 2.35714 3.25H4.71429V0.609375C4.71429 0.274219 4.97946 0 5.30357 0H7.26786C7.59196 0 7.85714 0.274219 7.85714 0.609375V3.25H14.1429V0.609375C14.1429 0.274219 14.408 0 14.7321 0H16.6964C17.0205 0 17.2857 0.274219 17.2857 0.609375V3.25H19.6429C20.9442 3.25 22 4.3418 22 5.6875V7.51562C22 7.85078 21.7348 8.125 21.4107 8.125ZM0.589286 9.75H21.4107C21.7348 9.75 22 10.0242 22 10.3594V23.5625C22 24.9082 20.9442 26 19.6429 26H2.35714C1.0558 26 0 24.9082 0 23.5625V10.3594C0 10.0242 0.265179 9.75 0.589286 9.75ZM6.28571 20.1094C6.28571 19.7742 6.02054 19.5 5.69643 19.5H3.73214C3.40804 19.5 3.14286 19.7742 3.14286 20.1094V22.1406C3.14286 22.4758 3.40804 22.75 3.73214 22.75H5.69643C6.02054 22.75 6.28571 22.4758 6.28571 22.1406V20.1094ZM6.28571 13.6094C6.28571 13.2742 6.02054 13 5.69643 13H3.73214C3.40804 13 3.14286 13.2742 3.14286 13.6094V15.6406C3.14286 15.9758 3.40804 16.25 3.73214 16.25H5.69643C6.02054 16.25 6.28571 15.9758 6.28571 15.6406V13.6094ZM12.5714 20.1094C12.5714 19.7742 12.3062 19.5 11.9821 19.5H10.0179C9.69375 19.5 9.42857 19.7742 9.42857 20.1094V22.1406C9.42857 22.4758 9.69375 22.75 10.0179 22.75H11.9821C12.3062 22.75 12.5714 22.4758 12.5714 22.1406V20.1094ZM12.5714 13.6094C12.5714 13.2742 12.3062 13 11.9821 13H10.0179C9.69375 13 9.42857 13.2742 9.42857 13.6094V15.6406C9.42857 15.9758 9.69375 16.25 10.0179 16.25H11.9821C12.3062 16.25 12.5714 15.9758 12.5714 15.6406V13.6094ZM18.8571 20.1094C18.8571 19.7742 18.592 19.5 18.2679 19.5H16.3036C15.9795 19.5 15.7143 19.7742 15.7143 20.1094V22.1406C15.7143 22.4758 15.9795 22.75 16.3036 22.75H18.2679C18.592 22.75 18.8571 22.4758 18.8571 22.1406V20.1094ZM18.8571 13.6094C18.8571 13.2742 18.592 13 18.2679 13H16.3036C15.9795 13 15.7143 13.2742 15.7143 13.6094V15.6406C15.7143 15.9758 15.9795 16.25 16.3036 16.25H18.2679C18.592 16.25 18.8571 15.9758 18.8571 15.6406V13.6094Z" fill="#FF6E30"/>
</svg>
